<svg width="14" height="15" viewBox="0 0 14 15" fill="none" xmlns="http://www.w3.org/2000/svg">
<g clip-path="url(#clip0_610_4186)">
<path d="M12.25 11.25H7C6.03477 11.25 5.25 10.4652 5.25 9.5V2.5C5.25 1.53477 6.03477 0.75 7 0.75H10.8309C11.1781 0.75 11.5117 0.889453 11.7578 1.13555L13.6145 2.99219C13.8605 3.23828 14 3.57188 14 3.91914V9.5C14 10.4652 13.2152 11.25 12.25 11.25ZM1.75 4.25H4.375V5.5625H1.75C1.50937 5.5625 1.3125 5.75938 1.3125 6V13C1.3125 13.2406 1.50937 13.4375 1.75 13.4375H7C7.24062 13.4375 7.4375 13.2406 7.4375 13V12.125H8.75V13C8.75 13.9652 7.96523 14.75 7 14.75H1.75C0.784766 14.75 0 13.9652 0 13V6C0 5.03477 0.784766 4.25 1.75 4.25Z" fill="white"/>
</g>
<defs>
<clipPath id="clip0_610_4186">
<path d="M0 0.75H14V14.75H0V0.75Z" fill="white"/>
</clipPath>
</defs>
</svg>
